<?xml version="1.0" standalone="no"?><!DOCTYPE svg PUBLIC "-//W3C//DTD SVG 1.1//EN" "http://www.w3.org/Graphics/SVG/1.1/DTD/svg11.dtd"><svg t="1711959394748" class="icon" viewBox="0 0 1024 1024" version="1.1" xmlns="http://www.w3.org/2000/svg" p-id="4728" xmlns:xlink="http://www.w3.org/1999/xlink" width="64" height="64"><path d="M949.80096 514.7648A81.92 81.92 0 0 1 962.56 558.67392V839.68a122.88 122.88 0 0 1-122.88 122.88H184.32a122.88 122.88 0 0 1-122.88-122.88V558.98112a81.92 81.92 0 0 1 125.952-69.07904L511.13984 696.32l325.57056-206.78656a81.92 81.92 0 0 1 113.09056 25.23136zM716.8 102.4a122.88 122.88 0 0 1 122.88 122.88v204.8L512.67584 634.88 184.32 430.08V225.28a122.88 122.88 0 0 1 122.88-122.88h409.6z" fill="#5B6067" p-id="4729"></path><path d="M348.16 225.28m30.72 0l266.24 0q30.72 0 30.72 30.72l0 0q0 30.72-30.72 30.72l-266.24 0q-30.72 0-30.72-30.72l0 0q0-30.72 30.72-30.72Z" fill="#5B6067" p-id="4730"></path><path d="M348.16 368.64m30.72 0l102.4 0q30.72 0 30.72 30.72l0 0q0 30.72-30.72 30.72l-102.4 0q-30.72 0-30.72-30.72l0 0q0-30.72 30.72-30.72Z" fill="#5B6067" p-id="4731"></path></svg>